<?xml version="1.0" encoding="UTF-8"?>
<svg id="Lag_1" data-name="Lag 1" xmlns="http://www.w3.org/2000/svg" version="1.1" viewBox="0 0 525.3 456">
  <defs>
    <style>
      .cls-1 {
        fill: #000;
        stroke-width: 0px;
      }
    </style>
  </defs>
  <path class="cls-1" d="M302.4,98c-11.9-14.5-40-39.6-58-51.6-31.3-21.1-59.3-32.3-65.3-26.3s2.7,19.6,11.6,39.7c2.4,5.5,5.5,14.1,6.9,19.2,2.9,10.8,4.9,14,17.5,27.6,5.1,5.5,14.9,17.5,21.9,26.4,7.1,9.1,13.6,16.8,14.4,17.2.9.3,6.7-.4,12.8-1.5,24.8-4.5,42.4-4.1,64.9,1.5,4.5,1.2,8.8,1.7,9.2,1.2,2.4-2.3-13.5-26-35.9-53.5Z"/>
  <path class="cls-1" d="M355.3,179.2c-6.7-3.2-18.1-7.5-25.5-9.5-11.7-3.1-15.7-3.5-35.9-3.6-13.9-.1-26.5.5-32.4,1.7l-9.7,1.7.8,6.9c.8,5.9.5,7.2-1.7,9.2-2.5,2.4-2.8,2.4-5.2-.3-1.3-1.5-6-8.8-10.4-16.4-13.2-22.9-23.1-35.5-44-56.4-38.9-39.1-74.9-62-121.3-77.2-22.8-7.5-28.5-8.7-38.3-8.8-6.3,0-7.9.5-9.1,2.7-2.9,5.6,10.8,37.3,27.2,62.7,10.3,15.6,32.5,41.5,45.6,52.5,18,15.5,54.3,40.1,83.7,57.1,8,4.7,16.9,10.7,20,13.3l5.5,4.9-2.9,2.9c-2.9,3.1-4.9,3.2-17.3,1.7-7.9-.9-6.5-2.3-12.9,13.9l-3.2,8.4,25.6-.4,25.7-.4,2.4-6.7c5.2-14.7,15.7-25.6,29.1-30.3,6.3-2.1,13.2-2.3,74-2.4,42.3,0,66.9-.5,66.9-1.3,0-2.7-24.9-20.4-36.7-26.1ZM217.6,205.6c-2.8,2.8-68.5-34-88-49.2-35.7-27.9-51.7-44.9-74.1-79.3-11.3-17.5-14.8-26.5-11.2-30.1,2.1-2.1,4.5-2,12.9.4,18,5.5,44.1,20.4,65.6,37.7,15.6,12.7,36.5,33.7,53.7,54.3,22.4,26.7,44.7,62.7,41.1,66.3Z"/>
  <path class="cls-1" d="M274.9,343.3c-3.9-3.6-8.7-9.5-10.7-13.2l-3.6-6.8v-34.7c0-40.1.7-43.2,11.5-57.5,7.2-9.5,7.3-9.3-7.2-6.5-10.5,2.1-16.3,5.9-22.3,14.7-5.3,7.7-6.7,15.7-6.7,39.2.1,27.2,1.7,43.9,5.1,50.3,5.9,11.5,16.1,17.5,34.3,19.9l6.5.9-6.9-6.3Z"/>
  <path class="cls-1" d="M502.8,246c-5.3-11.7-15.9-20-26.8-20.9-3.3-.3-43.7-.1-90,.3h0c-68,.5-84.7,1.1-87.3,2.5-8.1,4.5-15.2,11.6-18.5,18.7-3.5,7.3-3.5,7.9-3.5,38.8v31.3l3.7,7.6c4.4,8.9,12,16.1,22.1,20.9,6.9,3.2,9.1,3.5,28.3,3.9l20.9.4,4.8-4.1c2.7-2.4,4.8-4.8,4.8-5.5s-10.4-1.2-22.9-1.2c-26.1,0-30.7-1.2-40.1-10.4-9.3-9.1-10.1-11.6-11.1-40.7-.9-25.2-.8-26.1,2-31.7,3.9-7.6,8.8-12.8,15.5-16.3,5.3-2.9,6.3-2.9,87.3-3.3,45.1-.3,83.2-.1,84.8.3,5.2,1.3,16.1,12.5,18.7,18.9,2,5.2,2.1,9.5,1.5,33.2-.7,26.4-.8,27.5-4.4,34-2,3.6-6.3,8.7-9.5,11.2-5.7,4.4-6,4.5-23.7,5.5-9.9.5-18,1.3-18,1.9.1.4,1.2,2.1,2.5,3.7,2.4,2.9,3.6,3.1,19.1,3.1s16.7-.1,23.2-4c8.7-4.9,14.3-11.6,17.1-20.3,1.7-5.5,2.1-12.8,2.1-39.6s-.4-33.5-2.5-38.1Z"/>
  <path class="cls-1" d="M173.7,264.9l-24.4.4v18c0,11.7.5,18.1,1.5,18.8.8.5,16.4,1.2,34.7,1.6l33.2.7.3-18.3c0-10,.1-18.9.3-19.9.1-1.9-5.7-2-45.5-1.3Z"/>
  <path class="cls-1" d="M420,343.6c-14-12-38.1-6.3-50.7,12.1-8,11.9-7.1,11.6-51.3,11.3-44.7-.3-59.2-1.6-69.3-6.1-12.9-6-22.4-17.1-27.6-32.3l-2.3-6.7h-14.4c-7.9-.1-19.3,0-25.3.3h0s-11.1.5-11.1.5v4.7c0,12.7,8.1,35.9,17.3,49.2,23.7,34.5,59.3,54,105.9,58.1,24.3,2.1,38.8-.3,76.8-12.4,22.8-7.2,23.7-7.9,12-8.8-3.6-.3-8.1-.9-10.3-1.6-3.6-.9-3.6-1.1,3.9-4.4,8.3-3.9,11.1-6.9,13.7-16.3l1.9-6.1-6.4-4.5c-5.7-4.1-9.5-9.2-9.5-12.7s1.2-2.5,2.7-4c3.3-3.3,9.9-3.5,14.4-.1,6.4,4.4,9.1,4.5,16.1.7,6.3-3.6,6.7-3.6,10-1.5,2.1,1.5,3.5,3.6,3.5,5.6,0,3.7-6.7,11.9-12,14.7-3.2,1.6-3.9,3.1-4.7,9.6-.5,4.3-1.9,9.5-2.9,11.5-2.5,5.1-1.6,5.6,4.3,2.9,6.4-3.1,18.5-16.7,23.1-25.9,6.8-13.9,3.9-27.9-7.7-37.9ZM286.5,393.9c-2.5-2.3-2.5-2.4-.3-4.5,9.1-8.4,45.1-15.1,48.9-9.1.9,1.6.9,2.8,0,3.7-1.6,1.6-15.5,5.6-33.2,9.3-12.4,2.8-13.1,2.8-15.5.5ZM339.6,403.2c-.3.8-4.7,3.9-9.7,6.8-5.2,2.9-12.9,7.7-17.2,10.8-4.4,3.1-9.3,6.1-10.9,6.9-3.5,1.9-7.1.8-7.1-2.3s17.9-18.7,28.3-23.5c11.2-5.3,12.1-5.5,15.1-2.5s1.9,2.8,1.6,3.7Z"/>
</svg>